<svg xmlns="http://www.w3.org/2000/svg" viewBox="0 0 287.8 107.4"><g transform="translate(3.40,79.40)"><path d="M4.60 -24.60 L4.60 -26.20 Q4.60 -34.00 7.70 -39.55 Q10.80 -45.10 15.95 -48.05 Q21.10 -51.00 27.20 -51.00 Q34.00 -51.00 37.50 -48.60 Q41.00 -46.20 42.60 -43.60 L44.40 -43.60 L44.40 -49.60 L56.80 -49.60 L56.80 8.80 Q56.80 13.90 53.80 16.95 Q50.80 20.00 45.80 20.00 L12.60 20.00 L12.60 9.00 L41.40 9.00 Q44.20 9.00 44.20 6.00 L44.20 -6.90 L42.40 -6.90 Q41.40 -5.30 39.60 -3.65 Q37.80 -2.00 34.80 -0.90 Q31.80 0.20 27.20 0.20 Q21.10 0.20 15.95 -2.75 Q10.80 -5.70 7.70 -11.25 Q4.60 -16.80 4.60 -24.60 Z M30.80 -10.80 Q36.60 -10.80 40.50 -14.50 Q44.40 -18.20 44.40 -24.90 L44.40 -25.90 Q44.40 -32.70 40.55 -36.35 Q36.70 -40.00 30.80 -40.00 Q25.00 -40.00 21.10 -36.35 Q17.20 -32.70 17.20 -25.90 L17.20 -24.90 Q17.20 -18.20 21.10 -14.50 Q25.00 -10.80 30.80 -10.80 Z" fill="#0B0D12"/><path d="M83.20 1.40 Q77.90 1.40 73.70 -0.45 Q69.50 -2.30 67.05 -5.85 Q64.60 -9.40 64.60 -14.50 Q64.60 -19.60 67.05 -23.05 Q69.50 -26.50 73.85 -28.25 Q78.20 -30.00 83.80 -30.00 L97.40 -30.00 L97.40 -32.80 Q97.40 -36.30 95.20 -38.55 Q93.00 -40.80 88.20 -40.80 Q83.50 -40.80 81.20 -38.65 Q78.90 -36.50 78.20 -33.10 L66.60 -37.00 Q67.80 -40.80 70.45 -43.95 Q73.10 -47.10 77.55 -49.05 Q82.00 -51.00 88.40 -51.00 Q98.20 -51.00 103.90 -46.10 Q109.60 -41.20 109.60 -31.90 L109.60 -13.40 Q109.60 -10.40 112.40 -10.40 L116.40 -10.40 L116.40 0.00 L108.00 0.00 Q104.30 0.00 101.90 -1.80 Q99.50 -3.60 99.50 -6.60 L99.50 -6.70 L97.60 -6.70 Q97.20 -5.50 95.80 -3.55 Q94.40 -1.60 91.40 -0.10 Q88.40 1.40 83.20 1.40 Z M85.40 -8.80 Q90.70 -8.80 94.05 -11.75 Q97.40 -14.70 97.40 -19.60 L97.40 -20.60 L84.70 -20.60 Q81.20 -20.60 79.20 -19.10 Q77.20 -17.60 77.20 -14.90 Q77.20 -12.20 79.30 -10.50 Q81.40 -8.80 85.40 -8.80 Z" fill="#0B0D12"/><path d="M146.00 1.40 Q138.10 1.40 132.00 -1.40 Q125.90 -4.20 122.45 -9.45 Q119.00 -14.70 119.00 -21.90 L119.00 -23.70 L131.80 -23.70 L131.80 -22.30 Q131.80 -16.70 135.70 -13.35 Q139.60 -10.00 146.00 -10.00 Q152.50 -10.00 156.05 -13.10 Q159.60 -16.20 159.60 -20.90 L159.60 -21.90 Q159.60 -25.10 158.00 -27.10 Q156.40 -29.10 153.70 -30.05 Q151.00 -31.00 147.60 -31.00 L133.60 -31.00 L133.60 -45.00 L156.20 -57.00 L156.20 -58.60 L120.80 -58.60 L120.80 -70.00 L170.40 -70.00 L170.40 -53.00 L149.30 -41.80 L149.30 -40.20 L153.00 -40.20 Q157.70 -40.20 162.15 -38.30 Q166.60 -36.40 169.50 -32.45 Q172.40 -28.50 172.40 -22.20 L172.40 -21.00 Q172.40 -14.20 169.10 -9.15 Q165.80 -4.10 159.85 -1.35 Q153.90 1.40 146.00 1.40 Z" fill="#5B4DF4"/><path d="M188.40 1.40 Q184.30 1.40 181.55 -1.25 Q178.80 -3.90 178.80 -8.10 Q178.80 -12.30 181.55 -14.95 Q184.30 -17.60 188.40 -17.60 Q192.40 -17.60 195.10 -14.95 Q197.80 -12.30 197.80 -8.10 Q197.80 -3.90 195.10 -1.25 Q192.40 1.40 188.40 1.40 Z" fill="#0B0D12"/><path d="M222.60 1.40 Q217.30 1.40 213.10 -0.45 Q208.90 -2.30 206.45 -5.85 Q204.00 -9.40 204.00 -14.50 Q204.00 -19.60 206.45 -23.05 Q208.90 -26.50 213.25 -28.25 Q217.60 -30.00 223.20 -30.00 L236.80 -30.00 L236.80 -32.80 Q236.80 -36.30 234.60 -38.55 Q232.40 -40.80 227.60 -40.80 Q222.90 -40.80 220.60 -38.65 Q218.30 -36.50 217.60 -33.10 L206.00 -37.00 Q207.20 -40.80 209.85 -43.95 Q212.50 -47.10 216.95 -49.05 Q221.40 -51.00 227.80 -51.00 Q237.60 -51.00 243.30 -46.10 Q249.00 -41.20 249.00 -31.90 L249.00 -13.40 Q249.00 -10.40 251.80 -10.40 L255.80 -10.40 L255.80 0.00 L247.40 0.00 Q243.70 0.00 241.30 -1.80 Q238.90 -3.60 238.90 -6.60 L238.90 -6.70 L237.00 -6.70 Q236.60 -5.50 235.20 -3.55 Q233.80 -1.60 230.80 -0.10 Q227.80 1.40 222.60 1.40 Z M224.80 -8.80 Q230.10 -8.80 233.45 -11.75 Q236.80 -14.70 236.80 -19.60 L236.80 -20.60 L224.10 -20.60 Q220.60 -20.60 218.60 -19.10 Q216.60 -17.60 216.60 -14.90 Q216.60 -12.20 218.70 -10.50 Q220.80 -8.80 224.80 -8.80 Z" fill="#0B0D12"/><path d="M262.00 0.00 L262.00 -49.60 L274.60 -49.60 L274.60 0.00 L262.00 0.00 Z M268.30 -55.40 Q264.90 -55.40 262.55 -57.60 Q260.20 -59.80 260.20 -63.40 Q260.20 -67.00 262.55 -69.20 Q264.90 -71.40 268.30 -71.40 Q271.80 -71.40 274.10 -69.20 Q276.40 -67.00 276.40 -63.40 Q276.40 -59.80 274.10 -57.60 Q271.80 -55.40 268.30 -55.40 Z" fill="#0B0D12"/></g></svg>