<svg xmlns="http://www.w3.org/2000/svg" viewBox="0 0 120 120" width="120" height="120"><rect width="120" height="120" rx="30" fill="#0B0D12"/><g transform="translate(32.18,91.71) scale(0.9244)"><path d="M30.40 1.40 Q22.50 1.40 16.40 -1.40 Q10.30 -4.20 6.85 -9.45 Q3.40 -14.70 3.40 -21.90 L3.40 -23.70 L16.20 -23.70 L16.20 -22.30 Q16.20 -16.70 20.10 -13.35 Q24.00 -10.00 30.40 -10.00 Q36.90 -10.00 40.45 -13.10 Q44.00 -16.20 44.00 -20.90 L44.00 -21.90 Q44.00 -25.10 42.40 -27.10 Q40.80 -29.10 38.10 -30.05 Q35.40 -31.00 32.00 -31.00 L18.00 -31.00 L18.00 -45.00 L40.60 -57.00 L40.60 -58.60 L5.20 -58.60 L5.20 -70.00 L54.80 -70.00 L54.80 -53.00 L33.70 -41.80 L33.70 -40.20 L37.40 -40.20 Q42.10 -40.20 46.55 -38.30 Q51.00 -36.40 53.90 -32.45 Q56.80 -28.50 56.80 -22.20 L56.80 -21.00 Q56.80 -14.20 53.50 -9.15 Q50.20 -4.10 44.25 -1.35 Q38.30 1.40 30.40 1.40 Z" fill="#5B4DF4"/></g></svg>